<?xml version="1.0" encoding="UTF-8" standalone="no"?>
<!-- Created with Inkscape (http://www.inkscape.org/) -->

<svg
   width="503.95728"
   height="343.98798"
   viewBox="0 0 503.95728 343.98798"
   version="1.1"
   id="svg1"
   xmlns:inkscape="http://www.inkscape.org/namespaces/inkscape"
   xmlns:sodipodi="http://sodipodi.sourceforge.net/DTD/sodipodi-0.dtd"
   xmlns:xlink="http://www.w3.org/1999/xlink"
   xmlns="http://www.w3.org/2000/svg"
   xmlns:svg="http://www.w3.org/2000/svg">
  <sodipodi:namedview
     id="namedview1"
     pagecolor="#ffffff"
     bordercolor="#000000"
     borderopacity="0.25"
     inkscape:showpageshadow="2"
     inkscape:pageopacity="0.0"
     inkscape:pagecheckerboard="0"
     inkscape:deskcolor="#d1d1d1"
     inkscape:document-units="px"
     showgrid="true">
    <inkscape:grid
       id="grid1"
       units="px"
       originx="-3.6756739"
       originy="-81.180961"
       spacingx="1"
       spacingy="1"
       empcolor="#0099e5"
       empopacity="0.30196078"
       color="#0099e5"
       opacity="0.14901961"
       empspacing="5"
       enabled="true"
       visible="true" />
    <inkscape:page
       x="0"
       y="0"
       width="503.95728"
       height="343.98798"
       id="page2"
       margin="0"
       bleed="0" />
  </sodipodi:namedview>
  <defs
     id="defs1">
    <linearGradient
       inkscape:collect="always"
       xlink:href="#linearGradient2"
       id="linearGradient3"
       x1="3.8767922"
       y1="142.32179"
       x2="206.93864"
       y2="142.32179"
       gradientUnits="userSpaceOnUse"
       gradientTransform="matrix(2.4817921,0,0,2.7156021,-5.9457118,-133.3144)" />
    <linearGradient
       id="linearGradient2"
       inkscape:collect="always">
      <stop
         style="stop-color:#fada1a;stop-opacity:1;"
         offset="0"
         id="stop2" />
      <stop
         style="stop-color:#f5be09;stop-opacity:1;"
         offset="1"
         id="stop3" />
    </linearGradient>
  </defs>
  <g
     inkscape:label="Layer 1"
     inkscape:groupmode="layer"
     id="layer1"
     transform="translate(-3.675674,-81.180961)">
    <path
       style="fill:url(#linearGradient3);stroke-width:2.59607"
       d="M 237.16285,424.69234 C 178.10406,418.55331 119.8811,389.11037 69.66807,339.99144 49.631123,320.39106 19.052121,283.74171 8.888648,267.14642 5.9784658,262.39458 3.6756739,255.07114 3.6756739,250.56786 c 0,-3.70751 1.6240128,-9.96629 3.4632554,-13.34703 5.7825307,-10.62897 27.3508517,-37.1912 45.4287697,-55.94726 36.551129,-37.9223 73.170971,-64.57844 111.083961,-80.85973 50.5555,-21.710447 105.66799,-25.128331 158.13547,-9.807041 56.83724,16.597351 113.74984,58.497071 164.01247,120.747921 9.26504,11.47486 17.00846,22.62892 19.42905,27.98676 2.25482,4.9909 2.41779,5.79479 2.40355,11.85531 -0.0199,8.29613 -1.25016,11.33033 -9.33954,23.02695 -14.63294,21.15801 -43.29957,54.35203 -61.23407,70.90493 -39.94722,36.86978 -79.42122,60.14059 -122.79182,72.38853 -8.80223,2.48577 -18.92947,4.60599 -29.54885,6.1863 -9.10641,1.35514 -38.20932,1.96029 -47.55507,0.98884 z m 39.61836,-36.63003 c 44.78746,-8.34125 82.96963,-43.18999 97.82005,-89.28013 4.7875,-14.85859 6.74092,-27.94013 6.77865,-45.39503 0.0474,-21.97651 -3.98782,-40.46609 -13.26315,-60.77108 -6.10122,-13.35645 -11.86577,-22.1723 -21.98324,-33.61948 -16.88932,-19.10905 -34.92643,-30.82951 -57.55795,-37.40091 -11.85368,-3.4419 -18.61679,-4.35877 -32.17506,-4.36197 -14.19009,-0.002 -23.79579,1.46417 -36.03338,5.50507 -21.10332,6.96837 -37.7494,17.86962 -53.57003,35.08211 -31.19679,33.94142 -43.10947,80.01234 -33.07869,127.92796 2.59569,12.3992 8.97152,28.77496 15.444,39.66654 13.04973,21.95938 30.77642,39.32568 51.17717,50.13671 24.22518,12.83769 51.08259,17.23308 76.44163,12.51021 z m -87.93284,-43.57166 c -1.76853,-0.70414 -4.68388,-4.11217 -5.63523,-6.58754 -0.76409,-1.98815 -0.93118,-9.2306 -0.93118,-40.36447 0,-33.53433 -0.11987,-38.07273 -1.03186,-39.07066 -0.78774,-0.86197 -2.45774,-1.12972 -7.05888,-1.13175 -6.99071,-0.003 -9.3887,-1.12612 -11.16856,-5.23022 -1.34323,-3.09738 -1.38257,-5.01081 -0.15632,-7.60554 1.44676,-3.0613 85.39371,-93.6108 88.56114,-95.5266 3.04527,-1.84191 6.16521,-1.74228 9.79718,0.31283 1.08784,0.61555 11.7778,11.68022 23.75547,24.58819 11.97768,12.90795 31.02306,33.33047 42.32309,45.38335 11.30003,12.0529 21.11548,22.92247 21.81215,24.15466 2.28463,4.04087 1.27013,9.24917 -2.42033,12.42556 -1.54537,1.33009 -2.62774,1.50044 -9.53442,1.50044 h -7.79113 v 39.9126 c 0,43.73914 0.14369,42.07852 -3.96663,45.86293 l -2.0439,1.88184 h -22.60371 -22.60373 v -38.83486 c 0,-41.52388 -0.0268,-41.88607 -3.24685,-43.7717 -0.77645,-0.45468 -8.05616,-0.73979 -18.88966,-0.73979 -15.23298,0 -17.83394,0.15914 -19.15512,1.17165 -3.31343,2.53947 -3.35994,3.14962 -3.35994,44.07097 v 38.10373 l -21.83331,-0.0567 c -12.00832,-0.0312 -22.27654,-0.23328 -22.81827,-0.4489 z"
       id="path1"
       sodipodi:nodetypes="sssssssssscssssssssssscsssssssssscssssssssscsscccssscscsss"
       inkscape:export-filename="eyehouse.png"
       inkscape:export-xdpi="96"
       inkscape:export-ydpi="96" />
  </g>
</svg>
