<svg xmlns="http://www.w3.org/2000/svg" xmlns:xlink="http://www.w3.org/1999/xlink" width="500" zoomAndPan="magnify" viewBox="0 0 375 374.999991" height="500" preserveAspectRatio="xMidYMid meet" version="1.2"><defs><clipPath id="75878c433a"><path d="M 75 113.863281 L 117 113.863281 L 117 148 L 75 148 Z M 75 113.863281 "/></clipPath><clipPath id="74ca0a2e3c"><path d="M 14.234375 139.003906 L 365.429688 139.003906 L 365.429688 263.09375 L 14.234375 263.09375 Z M 14.234375 139.003906 "/></clipPath><clipPath id="b8869f621c"><path d="M 74 97.210938 L 119.707031 97.210938 L 119.707031 149.710938 L 74 149.710938 Z M 74 97.210938 "/></clipPath></defs><g id="b4e45edd68"><g clip-rule="nonzero" clip-path="url(#75878c433a)"><path style=" stroke:none;fill-rule:nonzero;fill:#ffde59;fill-opacity:1;" d="M 113.644531 130.125 L 96.125 147.640625 C 96.011719 147.753906 95.828125 147.753906 95.714844 147.640625 L 78.339844 130.269531 C 76.636719 128.566406 75.605469 126.390625 75.441406 124.144531 C 75.226562 121.316406 76.207031 118.664062 78.195312 116.675781 C 79.992188 114.878906 82.378906 113.886719 84.921875 113.886719 C 87.460938 113.886719 89.847656 114.878906 91.644531 116.675781 L 95.714844 120.742188 C 95.828125 120.855469 96.011719 120.855469 96.125 120.742188 L 100.054688 116.816406 C 101.789062 115.078125 104.015625 114.046875 106.316406 113.90625 C 106.519531 113.894531 106.722656 113.886719 106.921875 113.886719 C 109.769531 113.886719 112.355469 115.097656 114.210938 117.289062 C 115.460938 118.769531 116.238281 120.648438 116.394531 122.582031 C 116.632812 125.4375 115.652344 128.117188 113.644531 130.125 "/></g><g clip-rule="nonzero" clip-path="url(#74ca0a2e3c)"><path style=" stroke:none;fill-rule:nonzero;fill:#ffde59;fill-opacity:1;" d="M 21.5 263.09375 L 14.234375 251.769531 L 74.492188 213.105469 L 74.492188 156.796875 L 118.6875 156.796875 L 118.6875 184.75 L 189.835938 139.097656 L 365.429688 251.769531 L 358.160156 263.09375 L 189.835938 155.082031 L 105.230469 209.371094 L 105.230469 170.25 L 87.945312 170.25 L 87.949219 220.457031 L 21.5 263.09375 "/></g><g clip-rule="nonzero" clip-path="url(#b8869f621c)"><path style=" stroke:none;fill-rule:nonzero;fill:#ffde59;fill-opacity:1;" d="M 119.316406 108.796875 C 119.1875 106.683594 118.960938 105.082031 118.8125 104.199219 C 117.519531 104.007812 114.789062 103.558594 111.453125 102.746094 C 107.347656 101.746094 101.535156 99.988281 96.757812 97.226562 C 91.984375 99.988281 86.160156 101.746094 82.042969 102.742188 C 78.714844 103.550781 75.9375 104.003906 74.636719 104.195312 C 74.492188 105.074219 74.273438 106.664062 74.144531 108.792969 C 73.964844 111.835938 73.960938 116.542969 74.957031 121.707031 C 76.070312 127.480469 78.1875 132.632812 81.25 137.019531 C 84.992188 142.386719 90.179688 146.628906 96.671875 149.640625 C 103.21875 146.628906 108.449219 142.382812 112.214844 137.015625 C 115.296875 132.628906 117.417969 127.480469 118.53125 121.707031 C 119.523438 116.542969 119.507812 111.839844 119.316406 108.796875 "/></g></g></svg>