<svg xmlns="http://www.w3.org/2000/svg" xmlns:xlink="http://www.w3.org/1999/xlink" width="512" zoomAndPan="magnify" viewBox="0 0 384 383.999986" height="512" preserveAspectRatio="xMidYMid meet" version="1.2"><defs><clipPath id="b643c8bbce"><path d="M 0 8.777344 L 383.945312 8.777344 L 383.945312 377 L 0 377 Z M 0 8.777344 "/></clipPath><clipPath id="21727d6357"><path d="M 151.53125 172.234375 L 187.726562 172.234375 L 187.726562 209.328125 L 151.53125 209.328125 Z M 151.53125 172.234375 "/></clipPath><clipPath id="2dd0553d55"><path d="M 199.554688 172.234375 L 235.75 172.234375 L 235.75 209.328125 L 199.554688 209.328125 Z M 199.554688 172.234375 "/></clipPath><clipPath id="563ac0c992"><path d="M 151.53125 221.789062 L 187.726562 221.789062 L 187.726562 258.882812 L 151.53125 258.882812 Z M 151.53125 221.789062 "/></clipPath><clipPath id="71dc68c0e1"><path d="M 199.554688 221.789062 L 235.75 221.789062 L 235.75 258.882812 L 199.554688 258.882812 Z M 199.554688 221.789062 "/></clipPath></defs><g id="be8c9c026b"><g clip-rule="nonzero" clip-path="url(#b643c8bbce)"><path style=" stroke:none;fill-rule:nonzero;fill:#facc15;fill-opacity:1;" d="M 9.835938 156.664062 C 6.226562 144.460938 2.542969 132.183594 0.0859375 119.980469 L 91.71875 67.410156 L 91.71875 29.578125 L 129.632812 29.578125 L 129.632812 44.234375 L 191.945312 8.777344 L 383.804688 119.980469 C 380.121094 132.183594 377.667969 144.386719 374.058594 156.664062 L 191.945312 50.296875 Z M 191.945312 376.613281 C 191.945312 376.613281 147.972656 369.246094 97.859375 316.75 L 284.808594 316.75 C 235.921875 369.246094 191.945312 376.613281 191.945312 376.613281 Z M 83.199219 298.410156 L 83.199219 156.664062 L 191.945312 93.121094 L 300.691406 156.664062 L 300.691406 298.410156 Z M 64.859375 272.699219 C 50.203125 250.675781 35.542969 223.816406 23.339844 190.816406 L 64.859375 166.410156 Z M 319.035156 166.410156 L 360.554688 190.816406 C 348.351562 223.816406 333.691406 250.675781 319.035156 272.699219 Z M 151.65625 177.386719 L 183.429688 177.386719 L 183.429688 209.15625 L 151.65625 209.15625 Z M 200.464844 177.386719 L 232.238281 177.386719 L 232.238281 209.15625 L 200.464844 209.15625 Z M 232.238281 226.269531 L 232.238281 258.042969 L 200.464844 258.042969 L 200.464844 226.269531 Z M 183.429688 258.042969 L 151.65625 258.042969 L 151.65625 226.269531 L 183.429688 226.269531 Z M 183.429688 258.042969 "/></g><path style=" stroke:none;fill-rule:nonzero;fill:#ffffff;fill-opacity:1;" d="M 151.65625 177.386719 L 151.65625 209.15625 L 183.429688 209.15625 L 183.429688 177.386719 Z M 151.65625 177.386719 "/><path style=" stroke:none;fill-rule:nonzero;fill:#ffffff;fill-opacity:1;" d="M 200.464844 177.386719 L 200.464844 209.15625 L 232.238281 209.15625 L 232.238281 177.386719 Z M 200.464844 177.386719 "/><path style=" stroke:none;fill-rule:nonzero;fill:#ffffff;fill-opacity:1;" d="M 151.65625 226.269531 L 151.65625 258.042969 L 183.429688 258.042969 L 183.429688 226.269531 Z M 151.65625 226.269531 "/><path style=" stroke:none;fill-rule:nonzero;fill:#ffffff;fill-opacity:1;" d="M 200.464844 226.269531 L 200.464844 258.042969 L 232.238281 258.042969 L 232.238281 226.269531 Z M 200.464844 226.269531 "/><g clip-rule="nonzero" clip-path="url(#21727d6357)"><path style=" stroke:none;fill-rule:nonzero;fill:#2d5b69;fill-opacity:1;" d="M 151.53125 172.234375 L 187.726562 172.234375 L 187.726562 209.277344 L 151.53125 209.277344 Z M 151.53125 172.234375 "/></g><g clip-rule="nonzero" clip-path="url(#2dd0553d55)"><path style=" stroke:none;fill-rule:nonzero;fill:#2d5b69;fill-opacity:1;" d="M 199.554688 172.234375 L 235.75 172.234375 L 235.75 209.277344 L 199.554688 209.277344 Z M 199.554688 172.234375 "/></g><g clip-rule="nonzero" clip-path="url(#563ac0c992)"><path style=" stroke:none;fill-rule:nonzero;fill:#2d5b69;fill-opacity:1;" d="M 151.53125 221.789062 L 187.726562 221.789062 L 187.726562 258.835938 L 151.53125 258.835938 Z M 151.53125 221.789062 "/></g><g clip-rule="nonzero" clip-path="url(#71dc68c0e1)"><path style=" stroke:none;fill-rule:nonzero;fill:#2d5b69;fill-opacity:1;" d="M 199.554688 221.789062 L 235.75 221.789062 L 235.75 258.835938 L 199.554688 258.835938 Z M 199.554688 221.789062 "/></g></g></svg>