<?xml version="1.0" encoding="UTF-8" standalone="no"?>
<!-- Created with Inkscape (http://www.inkscape.org/) -->

<svg
   width="512"
   height="512"
   viewBox="0 0 512 512"
   version="1.1"
   id="svg1"
   xml:space="preserve"
   inkscape:version="1.4 (86a8ad7, 2024-10-11)"
   sodipodi:docname="worthsnap.svg"
   xmlns:inkscape="http://www.inkscape.org/namespaces/inkscape"
   xmlns:sodipodi="http://sodipodi.sourceforge.net/DTD/sodipodi-0.dtd"
   xmlns:xlink="http://www.w3.org/1999/xlink"
   xmlns="http://www.w3.org/2000/svg"
   xmlns:svg="http://www.w3.org/2000/svg"><sodipodi:namedview
     id="namedview1"
     pagecolor="#ffffff"
     bordercolor="#000000"
     borderopacity="0.25"
     inkscape:showpageshadow="2"
     inkscape:pageopacity="0.0"
     inkscape:pagecheckerboard="0"
     inkscape:deskcolor="#d1d1d1"
     inkscape:document-units="px"
     inkscape:zoom="1.6621094"
     inkscape:cx="256.30082"
     inkscape:cy="269.23619"
     inkscape:window-width="1920"
     inkscape:window-height="1111"
     inkscape:window-x="-9"
     inkscape:window-y="-9"
     inkscape:window-maximized="1"
     inkscape:current-layer="layer1" /><defs
     id="defs1"><linearGradient
       id="linearGradient1"
       inkscape:collect="always"><stop
         style="stop-color:#fad01a;stop-opacity:1;"
         offset="0"
         id="stop1" /><stop
         style="stop-color:#f5d009;stop-opacity:1;"
         offset="1"
         id="stop2" /></linearGradient><linearGradient
       inkscape:collect="always"
       xlink:href="#linearGradient1"
       id="linearGradient2"
       x1="14.446531"
       y1="259.19214"
       x2="503.20413"
       y2="259.19214"
       gradientUnits="userSpaceOnUse"
       gradientTransform="translate(-2)" /></defs><g
     inkscape:label="Layer 1"
     inkscape:groupmode="layer"
     id="layer1"><path
       style="fill:url(#linearGradient2);stroke-width:9.23297"
       d="M 89.325525,318.9195 C 75.306526,288.48048 51.997669,237.93141 37.528063,206.58824 23.058566,175.245 11.785384,148.36771 12.476705,146.86085 l 1.256989,-2.73981 h 40.453381 40.453408 l 2.670589,4.01703 c 2.526418,3.80026 14.800248,30.24934 42.889468,92.42354 15.19798,33.63984 15.4143,33.82987 22.05889,19.38293 2.96251,-6.44138 16.14355,-35.13677 29.29134,-63.76756 l 23.9048,-52.05594 h 41.22045 41.22033 l 21.4467,46.57643 c 35.45921,77.00792 37.43918,80.97732 39.4481,79.08424 1.06354,-1.00219 14.68522,-29.68593 30.27031,-63.74145 l 28.3366,-61.91922 h 41.26698 41.26706 l 1.25666,2.73981 c 0.69154,1.50686 -22.04261,53.28885 -50.51967,115.07104 l -51.77658,112.33134 h -41.18834 -41.18835 l -8.71689,-19.17849 c -57.48369,-126.47351 -42.25135,-136.97988 -80.90894,-46.07466 -14.15247,33.28031 -28.50012,61.16421 -29.61398,62.61515 l -2.02528,2.638 H 155.0327 114.81464 Z m 100.268195,38.35705 c 2.72556,-6.03431 68.90022,-149.99808 84.66406,-184.18765 l 8.37146,-18.15646 -28.90589,0.62213 -28.90577,0.62213 -17.62664,38.35705 c -9.69472,21.09632 -30.23758,65.97411 -45.65082,99.72827 -15.41327,33.75414 -28.89508,63.09729 -29.95974,65.20691 l -1.93576,3.8357 h 28.61333 28.61331 z m 200.58827,2.19181 c 4.29177,-8.75338 79.54833,-171.60611 85.8412,-185.75757 2.68036,-6.02758 5.74283,-12.68524 6.80563,-14.79488 l 1.93225,-3.83568 h -28.6133 -28.61334 l -2.72245,6.02749 c -1.49727,3.31512 -22.44497,48.93259 -46.55052,101.37215 -24.10546,52.43958 -43.8289,96.5775 -43.82983,98.08438 l -0.002,2.73979 h 26.93566 26.93574 z m -250.56594,-88.0753 c -4.78416,-10.32703 -18.78783,-40.72215 -31.11928,-67.54461 L 86.07609,155.08023 H 57.490338 28.904696 l 1.276756,2.73979 c 0.701804,1.50688 20.565708,44.6585 44.141008,95.89257 23.575381,51.23399 43.52347,94.02691 44.32912,95.0953 0.80573,1.0684 7.80936,-11.68818 15.56389,-28.34797 l 14.09904,-30.29048 z m 202.85558,34.7804 7.54695,-16.58177 -3.57583,-7.52832 c -1.96675,-4.14063 -14.18838,-30.70702 -27.15928,-59.03644 -12.97081,-28.32941 -24.42971,-52.25085 -25.46412,-53.15879 -1.03449,-0.90792 -8.03627,11.74244 -15.55969,28.11204 l -13.67877,29.7628 26.7708,58.46534 c 14.72388,32.15581 27.50791,59.94469 28.40885,61.75295 l 1.63825,3.28777 6.76292,-14.24696 c 3.71962,-7.83575 10.15903,-21.70868 14.30992,-30.82862 z"
       id="path1-1"
       sodipodi:nodetypes="ssscccsssscccsssccccscccssscccssscccssscccsssscccssscccssscccsssscsscsssscsscss" /></g></svg>
